{"title":"Altitude (2010) - DvDRip (NLSubs) - ACB-Team","uid":6194409,"size":875314149,"categoryP":"video","categoryS":"movies","magnet":"?xt=urn:btih:264ac358cadd7598145f7f849691dbaef2b392a9&amp;dn=Altitude+%282010%29+-+DvDRip+%28NLSubs%29+-+ACB-Team&amp;tr=udp%3A%2F%2Ftracker.openbittorrent.com%3A80&amp;tr=udp%3A%2F%2Fopen.demonii.com%3A1337&amp;tr=udp%3A%2F%2Ftracker.coppersurfer.tk%3A6969&amp;tr=udp%3A%2F%2Fexodus.desync.com%3A6969","seeders":0,"leechers":1,"uploader":"JornNL","files":-1,"time":1298409739,"description":"MOVIE INFO:\nKijkwijze: Geweld Angst Niet voor personen tot 16 jaar\nRegie: \tKaare Andrews\nCast: \tJessica Lowndes, Ryan Donowho, Michelle Harrison\nGenre: \tHorror, Science Fiction\nLand: \tVerenigde Staten, Canada\nTijdsduur: \t90 minuten\nPlot:\nNa een mysterieuze motorstoring heeft een pilote haar kleine sportvliegtuigje niet meer in de hand. Deze beginnende pilote en haar vier tienervrienden bevinden zich al snel in een dodelijke confrontatie met een bovennatuurlijke kracht. Wat staat hen te wachten? \n\n\nMEDIA INFO:\n\nGeneral\nComplete name                    : D:\\Gebruikers\\Jorn\\batch\\Uploaden\\Altitude (2010) - DvDRip (NLSubs) - ACB-Team\\Altitude (2010) - DvDRip (NLSubs) - ACB-Team.avi\nFormat                           : AVI\nFormat/Info                      : Audio Video Interleave\nFile size                        : 834 MiB\nDuration                         : 1h 30mn\nOverall bit rate                 : 1 292 Kbps\nWriting application              : VirtualDubMod 1.5.4.1 (build 2178/release)\nWriting library                  : VirtualDubMod build 2178/release\n\nVideo\nID                               : 0\nFormat                           : MPEG-4 Visual\nFormat profile                   : Advanced Simple@L5\nFormat settings, BVOP            : 1\nFormat settings, QPel            : No\nFormat settings, GMC             : No warppoints\nFormat settings, Matrix          : Custom\nCodec ID                         : XVID\nCodec ID/Hint                    : XviD\nDuration                         : 1h 30mn\nBit rate                         : 1 120 Kbps\nWidth                            : 640 pixels\nHeight                           : 272 pixels\nDisplay aspect ratio             : 2.35:1\nFrame rate                       : 23.976 fps\nColor space                      : YUV\nChroma subsampling               : 4:2:0\nBit depth                        : 8 bits\nScan type                        : Progressive\nCompression mode                 : Lossy\nBits/(Pixel*Frame)               : 0.268\nStream size                      : 723 MiB (87%)\nWriting library                  : XviD 58\n\nAudio\nID                               : 1\nFormat                           : MPEG Audio\nFormat version                   : Version 1\nFormat profile                   : Layer 3\nMode                             : Joint stereo\nMode extension                   : MS Stereo\nCodec ID                         : 55\nCodec ID/Hint                    : MP3\nDuration                         : 1h 30mn\nBit rate mode                    : Variable\nBit rate                         : 160 Kbps\nChannel(s)                       : 2 channels\nSampling rate                    : 48.0 KHz\nCompression mode                 : Lossy\nStream size                      : 103 MiB (12%)\nAlignment                        : Aligned on interleaves\nInterleave, duration             : 24 ms (0.58 video frame)\nInterleave, preload duration     : 115 ms\nWriting library                  : LAME3.90.\nEncoding settings                : -m j -V 4 -q 2 -lowpass 18 --abr 160\n\n","torrent":{"xt":"urn:btih:264ac358cadd7598145f7f849691dbaef2b392a9","amp;dn":"Altitude+%282010%29+-+DvDRip+%28NLSubs%29+-+ACB-Team","amp;tr":["udp%3A%2F%2Ftracker.openbittorrent.com%3A80","udp%3A%2F%2Fopen.demonii.com%3A1337","udp%3A%2F%2Ftracker.coppersurfer.tk%3A6969","udp%3A%2F%2Fexodus.desync.com%3A6969"],"infoHash":"264ac358cadd7598145f7f849691dbaef2b392a9","infoHashBuffer":{"type":"Buffer","data":[38,74,195,88,202,221,117,152,20,95,127,132,150,145,219,174,242,179,146,169]},"announce":[],"urlList":[]}}